<svg width="129" height="28" viewBox="0 0 129 28" fill="none" xmlns="http://www.w3.org/2000/svg">
<g clip-path="url(#clip0_103_6625)">
<path d="M44.38 11.225V20.235L45.74 20.745V21H42.51V20.745L43.87 20.235V9.61L42.85 9.355V9.1H44.975C45.5643 9.1 46.029 9.22467 46.369 9.474C46.7203 9.712 47.0207 10.069 47.27 10.545L50.976 17.634L53.815 10.545C54.0077 10.0463 54.2683 9.68367 54.597 9.457C54.9257 9.219 55.43 9.1 56.11 9.1H57.895V9.355L56.875 9.61V20.49L57.895 20.745V21H53.05V20.745L54.07 20.49V11.225L50.075 21.17H49.565L44.38 11.225ZM59.435 20.745L60.455 20.49V9.61L59.435 9.355V9.1H68.53V12.16H68.02C67.8046 11.99 67.6176 11.7747 67.459 11.514C67.0963 10.902 66.915 10.239 66.915 9.525H63.26V14.88H65.215C65.2943 14.4493 65.4416 14.047 65.657 13.673C65.7476 13.503 65.8553 13.3387 65.98 13.18H66.49V17.005H65.98C65.8553 16.8463 65.7476 16.682 65.657 16.512C65.4416 16.138 65.2943 15.7357 65.215 15.305H63.26V20.575H67.255C67.255 19.861 67.4363 19.198 67.799 18.586C67.9576 18.3253 68.1446 18.11 68.36 17.94H68.87V21H59.435V20.745ZM70.392 20.745L71.412 20.49V9.61L70.392 9.355V9.1H74.727C76.7557 9.1 78.3083 9.62133 79.385 10.664C80.473 11.7067 81.017 13.1687 81.017 15.05C81.017 16.9313 80.473 18.3933 79.385 19.436C78.3083 20.4787 76.7557 21 74.727 21H70.392V20.745ZM74.727 20.575C75.781 20.575 76.597 20.15 77.175 19.3C77.753 18.4387 78.042 17.022 78.042 15.05C78.042 13.078 77.753 11.667 77.175 10.817C76.597 9.95567 75.781 9.525 74.727 9.525H74.217V20.575H74.727ZM82.5443 20.745L83.5643 20.49V9.61L82.5443 9.355V9.1H86.8793C88.908 9.1 90.4607 9.62133 91.5373 10.664C92.6253 11.7067 93.1693 13.1687 93.1693 15.05C93.1693 16.9313 92.6253 18.3933 91.5373 19.436C90.4607 20.4787 88.908 21 86.8793 21H82.5443V20.745ZM86.8793 20.575C87.9333 20.575 88.7493 20.15 89.3273 19.3C89.9053 18.4387 90.1943 17.022 90.1943 15.05C90.1943 13.078 89.9053 11.667 89.3273 10.817C88.7493 9.95567 87.9333 9.525 86.8793 9.525H86.3693V20.575H86.8793ZM94.6967 21V20.745L95.7167 20.49V9.61L94.6967 9.355V9.1H99.5417V9.355L98.5217 9.61V20.49L99.5417 20.745V21H94.6967ZM106.933 21.255C105.119 21.255 103.703 20.7167 102.683 19.64C101.663 18.5633 101.153 17.0333 101.153 15.05C101.153 13.7467 101.374 12.6303 101.816 11.701C102.269 10.7603 102.898 10.052 103.703 9.576C104.519 9.08867 105.459 8.845 106.525 8.845C107.171 8.845 107.822 9.032 108.48 9.406C108.729 9.542 108.978 9.72333 109.228 9.95C109.42 9.65533 109.619 9.423 109.823 9.253C110.027 9.10567 110.14 9.02633 110.163 9.015H110.588V12.245H109.908C109.76 11.701 109.539 11.208 109.245 10.766C108.973 10.3353 108.633 9.97833 108.225 9.695C107.828 9.41167 107.369 9.27 106.848 9.27C106.066 9.27 105.414 9.72333 104.893 10.63C104.383 11.5367 104.128 13.01 104.128 15.05C104.128 17.124 104.405 18.6087 104.961 19.504C105.527 20.388 106.298 20.83 107.273 20.83C107.805 20.83 108.31 20.6827 108.786 20.388C109.273 20.082 109.664 19.6797 109.959 19.181C110.265 18.6823 110.418 18.1553 110.418 17.6H110.843C110.843 18.246 110.667 18.8523 110.316 19.419C109.976 19.9743 109.505 20.422 108.905 20.762C108.315 21.0907 107.658 21.255 106.933 21.255ZM110.772 20.745L112.132 20.235L116.807 8.93H117.317L122.162 20.49L123.012 20.745V21H120.972C120.383 21 119.901 20.8697 119.527 20.609C119.153 20.337 118.876 19.9857 118.694 19.555L117.827 17.515H113.764L112.642 20.235L113.917 20.745V21H110.772V20.745ZM113.934 17.09H117.657L115.787 12.619L113.934 17.09ZM123.517 20.745L124.537 20.49V9.61L123.517 9.355V9.1H128.362V9.355L127.342 9.61V20.575H130.997C130.997 19.861 131.178 19.198 131.541 18.586C131.7 18.3253 131.887 18.11 132.102 17.94H132.612V21H123.517V20.745Z" fill="#1D675D"/>
<path opacity="0.2" d="M19.8 27.8819C27.4215 27.8819 33.6 21.6404 33.6 13.941C33.6 6.24158 27.4215 0 19.8 0C12.1785 0 6 6.24158 6 13.941C6 21.6404 12.1785 27.8819 19.8 27.8819Z" fill="#1D675D"/>
<g clip-path="url(#clip1_103_6625)">
<path d="M23.3952 5.80957H21.569V6.93914H22.8304V9.46185C22.8304 11.3616 21.2848 12.907 19.3852 12.907H19.1216C17.2219 12.907 15.6764 11.3614 15.6764 9.46185V6.93914H16.9378V5.80957H15.1117C14.7997 5.80957 14.5469 6.06241 14.5469 6.37436V9.46185C14.5469 11.9844 16.5991 14.0366 19.1216 14.0366H19.3852C21.9077 14.0366 23.96 11.9844 23.96 9.46185V6.37436C23.96 6.06241 23.7071 5.80957 23.3952 5.80957Z" fill="#1D675D"/>
<path d="M21.514 5C21.2021 5 20.9492 5.25284 20.9492 5.56479V7.14618C20.9492 7.45813 21.2021 7.71097 21.514 7.71097C21.8259 7.71097 22.0788 7.45813 22.0788 7.14618V5.56479C22.0788 5.25284 21.8259 5 21.514 5Z" fill="#1D675D"/>
<path d="M17.0531 5C16.7411 5 16.4883 5.25284 16.4883 5.56479V7.14618C16.4883 7.45813 16.7411 7.71097 17.0531 7.71097C17.365 7.71097 17.6179 7.45813 17.6179 7.14618V5.56479C17.6179 5.25284 17.365 5 17.0531 5Z" fill="#1D675D"/>
<path d="M19.8595 16.6536V13.4531H18.7299V16.6536H16.9038C15.4297 16.6536 14.2305 17.8528 14.2305 19.3267C14.2305 20.8008 15.4382 22 16.9226 22H17.1862C18.6603 22 19.8595 20.8008 19.8595 19.3267V17.7831H21.7798V16.6536H19.8595ZM18.7299 19.3265C18.7299 20.1776 18.0373 20.8702 17.1862 20.8702H16.9226C16.0464 20.8702 15.36 20.1923 15.36 19.3265C15.36 18.4754 16.0527 17.7829 16.9038 17.7829H18.7299V19.3265Z" fill="#1D675D"/>
<path d="M22.9999 15.4487C22.0244 15.4487 21.2305 16.2425 21.2305 17.2184C21.2305 18.194 22.0242 18.9879 22.9999 18.9879C23.9757 18.9879 24.7696 18.194 24.7696 17.2184C24.7696 16.2426 23.9759 15.4487 22.9999 15.4487ZM22.9999 17.8581C22.6471 17.8581 22.36 17.571 22.36 17.2182C22.36 16.8652 22.6471 16.5781 22.9999 16.5781C23.3529 16.5781 23.64 16.8652 23.64 17.2182C23.64 17.571 23.3529 17.8581 22.9999 17.8581Z" fill="#1D675D"/>
</g>
</g>
<defs>
<clipPath id="clip0_103_6625">
<rect width="129" height="28" fill="white"/>
</clipPath>
<clipPath id="clip1_103_6625">
<rect width="17" height="17" fill="white" transform="translate(11 5)"/>
</clipPath>
</defs>
</svg>
